# xmcd
#
# Track frame offsets:
#	150
#	15039
#	31264
#	47113
#	61776
#	77409
#	93206
#	108147
#	123287
#	140186
#	154810
#	169328
#	185162
#	201163
#	215525
#	231933
#	247136
#	262479
#	278117
#	293631
#	309499
#	323909
#	339938
#
# Disc length: 4783 seconds
#
# Revision: 0
# Processed by: cddbd v1.5.2PL0 Copyright (c) Steve Scherf et al.
# Submitted via: EasyCDDAExtractor 16.0.6.1
#
DISCID=4b12ad17
DTITLE=Συλλογικός δίσκος - Ρεμπέτικα και λαϊκά 4
DYEAR=2009
DGENRE=Ποικίλη
TTITLE0=Τσαουσάκης Πρόδρομος-Νίνου Μαρίκα - Παίξε Χρήστο το μπουζούκι [1949, Β
TTITLE0=ασίλη Τσιτσάνη]
TTITLE1=Μητσάκης Γιώργος-Τατασσόπουλος Γιάννης - Είναι κρίμα [1951, Γιώργου Μη
TTITLE1=τσάκη]
TTITLE2=Μοσχονάς Οδυσσέας-Ευγενικός Αθανάσιος - Εσύ θα μετανοιώσεις [1949, Κώσ
TTITLE2=τα Μάνεση-Γιάννη Παπαϊωάννου]
TTITLE3=Παγιουμτζής Στράτος-Περπινιάδης Στελλάκης - Το ζάρι [1947, Στάτου Παγι
TTITLE3=ουμτζή]
TTITLE4=Καζαντζίδης Στέλιος-Γρίλλη Μαρία - Βύθισέ μου το μαχαίρι [1953, Χαράλα
TTITLE4=μπου Βασιλειάδη-Γερ. Κλουβάτου]
TTITLE5=Γούναρης Βασίλης - Άρχισαν τα όργανα[1953, Χρ.Γιαννακόπουλου-Α.Σακελλά
TTITLE5=ριου-Μ.Σουγιούλ]
TTITLE6=Χατζηχρήστος Απόστολος-Καλφοπούλου Σούλα-Τατασσόπουλος Γ. - Καροτσέρη 
TTITLE6=τράβα [1947, Απ. Χατζηχρήστου]
TTITLE7=Μητσάκης Γιώργος-Πασαλάρη Σούλα-Περπινιάδης Σ. - Το παιδί που μπήκε τώ
TTITLE7=ρα [1947, Γιώργου Μητσάκη]
TTITLE8=Τζουανάκος Σταύρος - Του χωρισμού η μαχαιριά [1951, Στ. Τζουανάκου]
TTITLE9=Χασκίλ Στέλλα-Μπίνης Τάκης-Χιώτης Μ. - Το καφεδάκι [1950, Ν. Ρούτσου-Μ
TTITLE9=ιχ. Χιώτη-Μαν. Χιώτη]
TTITLE10=Μπέλλου Σωτηρία - Φοβάμαι μη σε χάσω [1949, Αλ. Αγγελόπουλου-Γ. Παπαϊ
TTITLE10=ωάννου]
TTITLE11=Γεωργακοπούλου Ιωάννα-Μητσάκης Γ.-Τατασσόπουλος Γ. - Θα φύγω, θα με χ
TTITLE11=άσεις [1951, Γιώργου Μητσάκη]
TTITLE12=Τσαουσάκης Πρόδρομος-Γρίλλη Μαρία - Η στεναχώρια [1954, Κ. Βίρβου-Απ.
TTITLE12=Καλδάρα]
TTITLE13=Νίνου Μαρίκα - Βαλεντίνα [1950, Γιώργου Μητσάκη]
TTITLE14=Τζουανάκος Σταύρος-Κυριαζής Γιάννης - Μεσάνυχτα (σαν κουρέλι) [1954, 
TTITLE14=Χρ. Κολοκοτρώνη-Γ. Λαύκα]
TTITLE15=Χρυσάφη Άννα-Πλέσσας Σταύρος - Όπως στρώνεις, να κοιμάσαι [1954, Ευαγ
TTITLE15=γελίας Μαργαρώνη]
TTITLE16=Νίνου Μαρίκα-Τσιτσάνης Βασίλης - Τι σήμερα, τι αύριο, τι τώρα [1954, 
TTITLE16=Β. Τσιτσάνη-Γερ. Τσάκαλου]
TTITLE17=Ντάλια Ρένα-Μπιθικώτσης Γρηγόρης - Τύραννε τι θα κερδίσεις [1954, Δ. 
TTITLE17=Γκούτη-Γρ. Μπιθικώτση]
TTITLE18=Άνευ ερμηνευτού - Πενιές Μπέμπη [1956, οργ., Δημ. Στεργίου]
TTITLE19=Άγνωστος - Αγάπη πού 'γινες δίκοπο μαχαίρι
TTITLE20=Καζαντζίδης Στέλιος-Γκρέϋ Καίτη - Απόψε φίλα με [1955, Χρ. Κολοκοτρών
TTITLE20=η-Μ. Χιώτη]
TTITLE21=Άγνωστος - Τσιγγάνα
TTITLE22=Μπιθικώτσης Γρηγόρης-Τσιτσάνης Βασίλης - Όλοι οι ρεμπέτες του ντουνιά
TTITLE22=[1961, Μ. Βαμβακάρη]
EXTD=
EXTT0=
EXTT1=
EXTT2=
EXTT3=
EXTT4=
EXTT5=
EXTT6=
EXTT7=
EXTT8=
EXTT9=
EXTT10=
EXTT11=
EXTT12=
EXTT13=
EXTT14=
EXTT15=
EXTT16=
EXTT17=
EXTT18=
EXTT19=
EXTT20=
EXTT21=
EXTT22=
PLAYORDER=
